<svg xmlns="http://www.w3.org/2000/svg" width="60" height="59.95" viewBox="0 0 60 59.95">
  <g id="icon-rocket" transform="translate(-3.366 -3.372)">
    <path id="Tracciato_1" data-name="Tracciato 1" d="M63.05,4.186a.637.637,0,0,0-.476-.49C54.73,1.778,36.606,8.612,26.786,18.431a42.444,42.444,0,0,0-4.773,5.638,17.759,17.759,0,0,0-8.637,1.081C6.1,28.352,3.976,36.714,3.385,40.3A1.292,1.292,0,0,0,4.8,41.8l11.694-1.283a26,26,0,0,0,.159,2.639,2.617,2.617,0,0,0,.764,1.6l4.528,4.528a2.617,2.617,0,0,0,1.6.764,25.947,25.947,0,0,0,2.624.159L24.883,61.89a1.292,1.292,0,0,0,1.5,1.413c3.59-.577,11.968-2.7,15.154-9.978a17.839,17.839,0,0,0,1.1-8.608,42.511,42.511,0,0,0,5.652-4.773C58.148,30.139,64.939,12.419,63.05,4.186ZM39.518,27.241a6.158,6.158,0,1,1,8.709,0A6.153,6.153,0,0,1,39.518,27.241Z" transform="translate(0 0)" fill="#eaedee"/>
    <path id="Tracciato_2" data-name="Tracciato 2" d="M19.081,30.339h0a5.47,5.47,0,0,1-2.855,1.154,3.881,3.881,0,0,1-4.47-4.47A5.362,5.362,0,0,1,12.9,24.182l.014-.014a.482.482,0,0,0-.4-.822,6.628,6.628,0,0,0-3.879,1.889c-2.6,2.6-2.841,12.227-2.841,12.227s9.646-.245,12.242-2.841a6.584,6.584,0,0,0,1.889-3.879A.493.493,0,0,0,19.081,30.339Z" transform="translate(2.544 20.982)" fill="#eaedee"/>
  </g>
</svg>
